<?xml version="1.0" encoding="UTF-8" standalone="no"?>
<svg
   xmlns:dc="http://purl.org/dc/elements/1.1/"
   xmlns:cc="http://creativecommons.org/ns#"
   xmlns:rdf="http://www.w3.org/1999/02/22-rdf-syntax-ns#"
   xmlns:svg="http://www.w3.org/2000/svg"
   xmlns="http://www.w3.org/2000/svg"
   xmlns:sodipodi="http://sodipodi.sourceforge.net/DTD/sodipodi-0.dtd"
   xmlns:inkscape="http://www.inkscape.org/namespaces/inkscape"
   version="1.1"
   id="svg3336"
   width="93.276711"
   height="22.633127"
   viewBox="0 0 93.276711 22.633126"
   sodipodi:docname="garnet-logo.svg"
   inkscape:version="0.92.1 r15371">
  <title
     id="title4525">Gartner logo </title>
  <sodipodi:namedview
     pagecolor="#ffffff"
     bordercolor="#666666"
     borderopacity="1"
     objecttolerance="10"
     gridtolerance="10"
     guidetolerance="10"
     inkscape:pageopacity="0"
     inkscape:pageshadow="2"
     inkscape:window-width="1920"
     inkscape:window-height="1017"
     id="namedview9"
     showgrid="false"
     inkscape:showpageshadow="false"
     inkscape:zoom="5.6568542"
     inkscape:cx="72.376707"
     inkscape:cy="-0.3841761"
     inkscape:window-x="1912"
     inkscape:window-y="-8"
     inkscape:window-maximized="1"
     inkscape:current-layer="svg3336"
     fit-margin-top="0"
     fit-margin-left="0"
     fit-margin-right="0"
     fit-margin-bottom="0" />
  <metadata
     id="metadata3349">
    <rdf:RDF>
      <cc:Work
         rdf:about="">
        <dc:format>image/svg+xml</dc:format>
        <dc:type
           rdf:resource="http://purl.org/dc/dcmitype/StillImage" />
        <dc:title>Gartner logo </dc:title>
        <dc:date>29 agt 2020</dc:date>
        <cc:license
           rdf:resource="http://scripts.sil.org/OFL" />
      </cc:Work>
      <cc:License
         rdf:about="http://scripts.sil.org/OFL">
        <cc:permits
           rdf:resource="http://scripts.sil.org/pub/OFL/Reproduction" />
        <cc:permits
           rdf:resource="http://scripts.sil.org/pub/OFL/Distribution" />
        <cc:permits
           rdf:resource="http://scripts.sil.org/pub/OFL/Embedding" />
        <cc:permits
           rdf:resource="http://scripts.sil.org/pub/OFL/DerivativeWorks" />
        <cc:requires
           rdf:resource="http://scripts.sil.org/pub/OFL/Notice" />
        <cc:requires
           rdf:resource="http://scripts.sil.org/pub/OFL/Attribution" />
        <cc:requires
           rdf:resource="http://scripts.sil.org/pub/OFL/ShareAlike" />
        <cc:requires
           rdf:resource="http://scripts.sil.org/pub/OFL/DerivativeRenaming" />
        <cc:requires
           rdf:resource="http://scripts.sil.org/pub/OFL/BundlingWhenSelling" />
      </cc:License>
    </rdf:RDF>
  </metadata>
  <defs
     id="defs3338">
    <clipPath
       id="a">
      <path
         id="path3341"
         d="M 0,0 H 792 V 594 H 0 Z"
         inkscape:connector-curvature="0" />
    </clipPath>
  </defs>
  <g
     id="g5744"
     transform="translate(-9.9643292,-0.25289373)" />
  <path
     id="path5740"
     style="fill:#ffffff;fill-opacity:1;stroke-width:0.44582194"
     d="m 88.112586,18.642509 -0.27819,3.351689 c -0.95406,0.255902 -1.80113,0.347741 -2.82607,0.347741 -3.74892,0 -4.83628,-1.719089 -4.83628,-5.174209 V 3.1992373 h 3.97852 v 4.1541688 h 3.9589 l -0.27507,3.4395159 h -3.68383 v 6.075661 c 0,1.386506 0.38028,2.135487 1.80246,2.135487 0.61835,0 1.30625,-0.07445 2.15956,-0.361561 m 2.74287,1.591495 v -0.706628 h 0.471233 c 0.241636,0 0.498429,0.05216 0.498429,0.335258 0,0.350862 -0.262143,0.37137 -0.554602,0.37137 z m 0,0.294688 h 0.39901 l 0.601414,0.990171 h 0.388757 l -0.649563,-1.00622 c 0.335704,-0.04102 0.592052,-0.221128 0.592052,-0.629947 0,-0.45028 -0.267048,-0.650008 -0.807384,-0.650008 h -0.869353 v 2.286175 h 0.345067 z m 0.419518,1.829207 c 1.080227,0 2.00174,-0.839036 2.00174,-1.98792 0,-1.137291 -0.921513,-1.974545 -2.00174,-1.974545 -1.090035,0 -2.01244,0.837254 -2.01244,1.974545 0,1.148884 0.922405,1.98792 2.01244,1.98792 m -1.614767,-1.98792 c 0,-0.937563 0.707519,-1.644191 1.614767,-1.644191 0.896102,0 1.604959,0.706628 1.604959,1.644191 0,0.954059 -0.708857,1.658458 -1.604959,1.658458 -0.907248,0 -1.614767,-0.704399 -1.614767,-1.658458 m -57.72188,-4.710376 h -0.553265 c -1.883598,0.004 -5.192043,0.09674 -5.17956,2.066385 0.01783,2.774796 5.732825,1.89296 5.732825,-1.45338 z m 3.827827,-3.221955 v 9.645804 h -3.507727 l -0.08694,-1.452488 c -1.076214,1.333007 -2.82339,1.812712 -4.622281,1.812712 -2.708814,0 -5.268278,-1.335683 -5.321777,-4.446628 -0.08069,-4.889775 5.503226,-5.237071 9.010062,-5.237071 h 0.700832 v -0.193486 c 0,-1.616996 -1.069973,-2.490362 -3.084642,-2.490362 -1.446247,0 -2.873768,0.580015 -3.929475,1.569739 L 22.628673,9.3137743 c 2.084218,-1.6896652 4.252695,-2.3200574 6.562945,-2.3200574 4.562987,0 6.574536,2.1087378 6.574536,5.4439311 m 38.734079,0.600879 c -0.122155,-1.860861 -1.51624,-3.037385 -3.436395,-2.962487 -1.932639,0.07311 -3.219281,1.33167 -3.485882,2.962487 z m 3.985648,3.079738 H 67.577956 c 0.310738,1.88226 1.790421,3.014648 3.633003,3.065917 1.791312,0.04859 2.79352,-0.492633 4.103791,-1.819399 l 2.596021,1.979449 c -1.844811,2.272355 -4.058763,3.099354 -6.580778,3.099354 -4.435928,0 -7.759085,-3.101583 -7.759085,-7.725648 0,-4.619161 3.306662,-7.7243102 7.593239,-7.7243102 4.724375,0 7.321734,2.8621765 7.321734,7.9427632 z m -16.708514,5.965231 h -3.978961 v -7.787172 c 0,-1.630816 -0.14088,-3.68338 -2.434634,-3.68338 -2.209047,0 -3.0891,1.594259 -3.0891,3.450661 v 8.019891 H 48.297049 V 7.353094 h 3.687839 l 0.08426,1.8831518 c 0.790443,-1.2607844 2.262547,-2.2424843 4.434145,-2.2424843 4.008831,0 5.274074,2.8621768 5.274074,5.8407125 z M 20.316551,20.451565 c -2.69856,1.443571 -5.393999,2.276367 -8.954333,2.172936 C 4.761824,22.422989 0,18.324548 0,11.401826 0,4.5094188 4.8077437,0.10558976 11.365339,0.00215907 c 3.324048,-0.0508237 6.298572,0.7926714 8.623533,2.84434393 L 17.188219,5.6797014 C 15.749552,4.4532452 13.632789,3.7363636 11.103195,3.8509398 6.9762215,4.0430891 4.4894268,7.0421332 4.4345907,11.16554 c -0.053944,4.467581 2.6856313,7.546428 6.9681973,7.658775 2.015115,0.05038 3.458686,-0.220236 4.707879,-0.78108 v -4.566554 h -4.451086 l 0.300484,-3.7453499 h 8.356486 z M 46.990702,7.3532277 46.682639,10.793189 H 45.60152 c -2.238471,0 -3.351689,1.795771 -3.351689,3.521102 V 22.08363 H 38.27087 V 7.3532277 h 3.767196 l 0.07846,1.8385697 C 42.910985,7.931013 44.293479,7.3532277 46.000531,7.3532277 Z"
     inkscape:connector-curvature="0" />
</svg>
