<?xml version="1.0" encoding="UTF-8" standalone="no"?>
<svg
   xmlns:dc="http://purl.org/dc/elements/1.1/"
   xmlns:cc="http://creativecommons.org/ns#"
   xmlns:rdf="http://www.w3.org/1999/02/22-rdf-syntax-ns#"
   xmlns:svg="http://www.w3.org/2000/svg"
   xmlns="http://www.w3.org/2000/svg"
   xmlns:sodipodi="http://sodipodi.sourceforge.net/DTD/sodipodi-0.dtd"
   xmlns:inkscape="http://www.inkscape.org/namespaces/inkscape"
   enable-background="new 0 0 266 100"
   version="1.1"
   viewBox="0 0 193.13448 56.413037"
   xml:space="preserve"
   id="svg4502"
   sodipodi:docname="mugpad-logo.svg"
   inkscape:version="0.92.1 r15371"
   width="193.13448"
   height="56.413036"><metadata
   id="metadata4508"><rdf:RDF><cc:Work
       rdf:about=""><dc:format>image/svg+xml</dc:format><dc:type
         rdf:resource="http://purl.org/dc/dcmitype/StillImage" /><dc:title></dc:title></cc:Work></rdf:RDF></metadata><defs
   id="defs4506" /><sodipodi:namedview
   pagecolor="#ffffff"
   bordercolor="#666666"
   borderopacity="1"
   objecttolerance="10"
   gridtolerance="10"
   guidetolerance="10"
   inkscape:pageopacity="0"
   inkscape:pageshadow="2"
   inkscape:window-width="1920"
   inkscape:window-height="1017"
   id="namedview4504"
   showgrid="false"
   inkscape:zoom="3.4743931"
   inkscape:cx="107.87205"
   inkscape:cy="-31.456137"
   inkscape:window-x="1912"
   inkscape:window-y="-8"
   inkscape:window-maximized="1"
   inkscape:current-layer="svg4502"
   fit-margin-top="0"
   fit-margin-left="0"
   fit-margin-right="0"
   fit-margin-bottom="0" />


<path
   id="path4538"
   style="font-style:normal;font-variant:normal;font-weight:500;font-stretch:normal;font-size:medium;line-height:1.25;font-family:Klavika;-inkscape-font-specification:'Klavika, Medium';font-variant-ligatures:normal;font-variant-caps:normal;font-variant-numeric:normal;font-feature-settings:normal;text-align:start;letter-spacing:-1px;word-spacing:0px;writing-mode:lr-tb;text-anchor:start;fill:#3b5998;fill-opacity:1;stroke:#3b5998;stroke-width:1.5;stroke-miterlimit:4;stroke-dasharray:none;stroke-opacity:1"
   d="m 167.65264,33.326546 c 0,6.647053 3.11394,10.120287 8.98251,10.120287 3.65288,0 6.64705,-1.197667 9.22203,-3.054051 l 0.7186,2.455218 h 5.80869 V 0.75000158 L 185.0787,1.7680186 V 13.92434 c -2.27557,-0.479067 -5.20985,-0.838367 -7.78484,-0.838367 -6.76681,0 -9.64122,3.832534 -9.64122,10.299936 z m 17.42606,1.257551 c -1.55697,1.4372 -4.13195,2.634867 -6.52729,2.634867 -2.69475,0 -3.593,-1.317434 -3.593,-3.712768 V 23.206259 c 0,-2.634867 1.01802,-3.892418 3.65289,-3.892418 2.09592,0 4.55113,0.359301 6.4674,0.778484 z M 162.11133,23.625443 c 0,-7.305769 -2.69475,-10.53947 -11.8569,-10.53947 -3.23371,0 -7.24589,0.53895 -10.00052,1.377317 l 0.89825,5.569152 c 2.57498,-0.538951 5.44938,-0.898251 8.08425,-0.898251 4.6709,0 5.56915,1.137784 5.56915,4.371485 v 3.054051 h -7.00635 c -5.92845,0 -8.50344,2.275568 -8.50344,8.20402 0,5.030202 2.27557,8.683086 7.60519,8.683086 2.93428,0 6.04822,-0.838367 8.68308,-2.574984 l 0.53895,1.976151 h 5.98834 z m -7.30577,12.515621 c -1.37732,0.778484 -3.35347,1.497084 -5.50927,1.497084 -2.27557,0 -2.93428,-0.898251 -2.93428,-2.934285 0,-2.215684 0.65871,-2.874401 3.05405,-2.874401 h 5.3895 z M 134.29527,23.206259 c 0,-6.647052 -3.11393,-10.120286 -8.9825,-10.120286 -3.65289,0 -6.64705,1.197667 -9.22204,3.054051 l -0.7186,-2.455218 h -5.80868 v 41.978231 l 7.30577,-1.018017 V 42.608466 c 2.27556,0.479067 5.20985,0.838367 7.78483,0.838367 6.76682,0 9.64122,-3.832535 9.64122,-10.299937 z m -17.42605,-1.25755 c 1.55696,-1.437201 4.13195,-2.634868 6.52728,-2.634868 2.69475,0 3.593,1.317434 3.593,3.712768 v 10.299937 c 0,2.634868 -1.01801,3.892418 -3.65288,3.892418 -2.09592,0 -4.55114,-0.3593 -6.4674,-0.778483 z M 91.264169,35.063164 c 8.144136,0 11.737141,-3.593002 11.737141,-9.521454 v -2.754634 c 0,-1.676734 -0.3593,-3.293585 -1.01802,-4.551135 1.01802,-0.299417 2.21568,-0.598834 3.2337,-0.89825 v -3.652885 h -8.982503 c -1.4372,-0.3593 -2.994167,-0.598833 -4.970318,-0.598833 -8.443553,0 -11.617371,3.652884 -11.737137,9.701103 v 2.754634 c 0,3.533118 1.25755,6.227869 3.952301,7.84472 -1.437201,1.018017 -3.054051,2.574984 -3.054051,4.970318 0,3.712768 1.61685,5.090085 5.748802,5.569152 3.712768,0.419183 5.090085,0.598833 8.443553,0.958134 2.215684,0.239533 2.754634,0.53895 2.754634,2.33545 0,1.916268 -1.137784,2.335451 -6.946469,2.335451 -3.413351,0 -6.706936,-0.479067 -9.82087,-1.25755 l -0.89825,5.449385 c 3.293584,1.018017 7.904602,1.497084 11.25807,1.497084 10.898768,0 13.174338,-2.455218 13.174338,-8.683086 0,-4.191835 -1.49708,-6.527286 -6.227869,-7.066236 -3.413351,-0.3593 -5.209851,-0.53895 -8.443553,-0.898251 -1.137783,-0.119766 -1.61685,-0.479066 -1.61685,-1.25755 0,-0.89825 0.778483,-1.736617 1.736617,-2.335451 0.53895,0.05988 1.0779,0.05988 1.676734,0.05988 z m 4.910435,-12.036555 v 2.215684 c 0,2.814518 -1.4372,3.952302 -4.910435,3.952302 -3.413351,0 -4.850552,-1.077901 -4.850552,-3.952302 v -2.215684 c 0,-2.754634 1.257551,-4.072068 4.850552,-4.072068 3.652885,0 4.910435,1.317434 4.910435,4.072068 z M 49.392363,13.684806 V 34.82363 c 0,5.209852 1.736618,8.623203 6.587169,8.623203 3.413352,0 8.02437,-1.25755 11.677254,-3.054051 L 68.375387,42.848 h 5.569152 V 13.684806 h -7.30577 V 33.92538 c -2.634867,1.377317 -5.808685,2.455217 -7.605186,2.455217 -1.676733,0 -2.33545,-0.778483 -2.33545,-2.33545 V 13.684806 Z M 25.302175,42.848 V 22.607426 c 2.275568,-1.317434 5.808686,-2.455218 7.605186,-2.455218 1.676734,0 2.335451,0.778484 2.335451,2.335451 V 42.848 h 7.305769 V 21.709176 c 0,-5.209852 -1.736617,-8.623203 -6.587169,-8.623203 -3.533118,0 -8.204019,1.317433 -11.737137,3.113934 -0.958134,-1.976151 -2.694751,-3.113934 -5.509269,-3.113934 -3.413351,0 -8.024369,1.25755 -11.6772537,3.054051 L 6.319152,13.684806 H 0.7500001 V 42.848 H 8.0557693 V 22.607426 c 2.6348677,-1.377317 5.8086857,-2.455218 7.6051857,-2.455218 1.676734,0 2.335451,0.778484 2.335451,2.335451 V 42.848 Z" /></svg>