<?xml version="1.0" encoding="UTF-8" standalone="no"?>
<!-- Created with Inkscape (http://www.inkscape.org/) -->

<svg
   xmlns:dc="http://purl.org/dc/elements/1.1/"
   xmlns:cc="http://creativecommons.org/ns#"
   xmlns:rdf="http://www.w3.org/1999/02/22-rdf-syntax-ns#"
   xmlns:svg="http://www.w3.org/2000/svg"
   xmlns="http://www.w3.org/2000/svg"
   xmlns:sodipodi="http://sodipodi.sourceforge.net/DTD/sodipodi-0.dtd"
   xmlns:inkscape="http://www.inkscape.org/namespaces/inkscape"
   width="2852.0115"
   height="1062.9998"
   viewBox="0 0 754.59468 281.25203"
   version="1.1"
   id="svg8"
   inkscape:version="0.92.1 r15371"
   sodipodi:docname="lentil-logo.svg">
  <defs
     id="defs2" />
  <sodipodi:namedview
     id="base"
     pagecolor="#ffffff"
     bordercolor="#666666"
     borderopacity="1.0"
     inkscape:pageopacity="0.0"
     inkscape:pageshadow="2"
     inkscape:zoom="0.175"
     inkscape:cx="-189.97484"
     inkscape:cy="387.42352"
     inkscape:document-units="px"
     inkscape:current-layer="layer1"
     showgrid="false"
     units="px"
     inkscape:window-width="1920"
     inkscape:window-height="1017"
     inkscape:window-x="1912"
     inkscape:window-y="-8"
     inkscape:window-maximized="1"
     fit-margin-top="0"
     fit-margin-left="0"
     fit-margin-right="0"
     fit-margin-bottom="0"
     inkscape:snap-smooth-nodes="true" />
  <metadata
     id="metadata5">
    <rdf:RDF>
      <cc:Work
         rdf:about="">
        <dc:format>image/svg+xml</dc:format>
        <dc:type
           rdf:resource="http://purl.org/dc/dcmitype/StillImage" />
        <dc:title></dc:title>
      </cc:Work>
    </rdf:RDF>
  </metadata>
  <g
     inkscape:label="Layer 1"
     inkscape:groupmode="layer"
     id="layer1"
     transform="translate(1927.7686,-92.106552)">
    <g
       id="g6468">
      <path
         inkscape:connector-curvature="0"
         style="fill:#02abe8;stroke-width:0.35277778"
         d="M -1303.6978,122.97449 V 96.42573 l 26.1938,0.09 c 14.4066,0.0495 26.3932,0.16395 26.637,0.25438 0.3515,0.13037 0.4245,5.59015 0.3528,26.36836 l -0.091,26.20396 -26.5465,0.0904 -26.5466,0.0904 z"
         id="path6410" />
      <path
         d="m -1349.618,374.79661 c -29.2045,-1.93088 -45.3187,-9.03757 -55.676,-24.55422 -7.1233,-10.67164 -10.6107,-25.5762 -11.5332,-49.29139 -0.1898,-4.87923 -0.3387,-48.85452 -0.342,-100.98264 l -0.01,-92.33958 h 24.8708 24.8709 v 37.21805 c 0,20.46993 0.04,37.25414 0.088,37.29823 0.048,0.0441 8.2638,0.16316 18.2562,0.26458 l 18.1681,0.18442 0.091,20.90208 0.091,20.90208 h -17.9513 c -15.0419,0 -18.0184,0.0808 -18.3653,0.49888 -0.5909,0.71197 -0.3256,79.23816 0.2813,83.28584 1.0277,6.85312 2.8352,11.13559 6.0619,14.36234 4.3979,4.3979 9.9464,5.88325 24.4997,6.55872 l 5.2917,0.24561 v 22.75417 22.75416 l -8.4667,0.0277 c -4.6567,0.0152 -9.2604,-0.0248 -10.2306,-0.089 z m -285.9264,-96.95255 v -95.42639 h 24.3374 24.3374 l 0.092,13.31261 c 0.083,11.8918 0.1529,13.32423 0.6585,13.42153 0.3612,0.0695 1.5625,-1.14117 3.3207,-3.34664 12.048,-15.11318 28.227,-24.23178 47.4896,-26.76556 6.0054,-0.78993 19.3025,-0.53066 25.9909,0.50676 16.9808,2.63389 30.1976,9.04252 40.9827,19.87185 13.3454,13.40008 20.7057,32.07587 22.219,56.37722 0.2219,3.56267 0.3632,27.41026 0.3642,61.47153 v 55.6507 h -25.0473 -25.0472 v -53.28335 c 0,-35.06779 -0.1275,-54.45446 -0.3731,-56.70903 -2.9812,-27.36761 -18.0958,-41.70207 -43.9718,-41.70207 -12.4065,0 -22.299,3.85873 -31.0347,12.10554 -8.2208,7.76077 -12.2641,16.74675 -14.6329,32.52085 -0.3105,2.06816 -0.458,16.79595 -0.5517,55.12153 l -0.128,52.2993 h -24.5039 -24.5039 z m -127.9073,99.33716 c 0.5849,-0.16729 -0.3061,-0.33299 -2.6459,-0.49205 -10.338,-0.70276 -22.569,-3.83538 -32.8898,-8.42381 -20.9032,-9.2932 -36.1484,-23.60157 -46.3498,-43.50186 -5.6157,-10.95478 -8.6265,-20.69091 -10.418,-33.69028 -0.748,-5.42735 -0.8496,-19.9175 -0.1768,-25.22361 2.6448,-20.85955 10.9023,-39.03743 24.9223,-54.86328 13.1302,-14.82145 33.1947,-26.25595 53.222,-30.3306 18.4484,-3.75339 39.7875,-2.2312 56.895,4.05851 8.2628,3.03785 19.1115,9.13046 26.0562,14.63306 15.0543,11.92814 27.367,31.12322 32.4624,50.60787 2.7501,10.51659 3.4435,17.00905 3.4871,32.65139 l 0.034,12.17083 -75.2299,0.089 -75.2299,0.089 v 0.84699 c 0,1.47 2.4535,8.00017 4.4658,11.88606 2.4646,4.75947 5.6217,8.96303 9.4617,12.59789 8.03,7.60103 17.7097,11.90119 30.3462,13.48107 4.7116,0.58908 14.5075,0.50805 18.8736,-0.15612 13.6193,-2.07177 26.7264,-8.35147 36.3719,-17.426 2.1658,-2.03761 3.2641,-2.84582 3.5956,-2.64584 0.4882,0.29462 34.0382,25.74083 34.6056,26.24695 0.8144,0.7263 -9.2072,10.42257 -16.2334,15.70642 -12.8463,9.66078 -27.7038,16.26744 -43.5175,19.35086 -5.1668,1.00745 -12.3376,1.94341 -15.1645,1.97934 -1.4157,0.018 -1.7573,0.10795 -1.2452,0.32798 0.4181,0.17967 -2.8157,0.29896 -7.9375,0.29282 -4.7537,-0.006 -8.2462,-0.12387 -7.7611,-0.2626 z m 40.5694,-117.11409 16.4042,-0.21474 -0.072,-2.31244 c -0.1423,-4.55449 -2.9254,-11.29756 -6.8449,-16.58377 -7.8154,-10.54055 -19.8499,-17.40065 -34.7107,-19.7863 -4.6946,-0.75363 -16.1048,-0.56194 -21.1422,0.3552 -16.2223,2.95348 -29.5198,12.08826 -36.1948,24.86411 -2.7136,5.19377 -4.541,12.22951 -3.5017,13.48185 0.365,0.43978 5.2201,0.50361 35.0409,0.46068 19.0395,-0.0274 41.9991,-0.14648 51.0214,-0.26459 z m -179.7629,113.29154 c -19.2295,-0.0727 -24.6545,-0.18903 -24.7838,-0.5316 -0.091,-0.24121 -0.2047,-63.50201 -0.2526,-140.57954 l -0.087,-140.140975 h 25.1354 l 25.1355,1e-5 V 232.86489 c 0,77.41708 -0.1191,140.71974 -0.2646,140.67258 -0.1456,-0.0472 -11.3428,-0.12762 -24.8829,-0.1788 z m 600.9451,-95.25238 V 182.6751 l 24.6063,0.0906 24.6062,0.0906 v 95.25 95.25 l -24.6062,0.0906 -24.6063,0.0906 z m 78.2556,95.25238 c -0.091,-0.24121 0,-281.25212 0,-281.25212 h 50.2709 c 0,0 0.1455,281.29928 0,281.25212 -0.1456,-0.0472 -50.1416,0.34257 -50.2709,0 z"
         style="fill:#ffffff;stroke-width:0.35277778"
         id="path6364"
         inkscape:connector-curvature="0"
         sodipodi:nodetypes="ccsccccscccccscccscccccccccccccccccccccscsccccccccccsccsccccccccscscsccccccccccccccccccsccscscccscscccccccccccccc" />
    </g>
  </g>
</svg>
