<?xml version="1.0" encoding="UTF-8" standalone="no"?>
<svg
   xmlns:dc="http://purl.org/dc/elements/1.1/"
   xmlns:cc="http://creativecommons.org/ns#"
   xmlns:rdf="http://www.w3.org/1999/02/22-rdf-syntax-ns#"
   xmlns:svg="http://www.w3.org/2000/svg"
   xmlns="http://www.w3.org/2000/svg"
   xmlns:sodipodi="http://sodipodi.sourceforge.net/DTD/sodipodi-0.dtd"
   xmlns:inkscape="http://www.inkscape.org/namespaces/inkscape"
   viewBox="0 0 684.1853 182.43355"
   version="1.1"
   id="svg7034"
   sodipodi:docname="macrohard-logo.svg"
   width="684.1853"
   height="182.43355"
   inkscape:version="0.92.1 r15371">
  <metadata
     id="metadata7040">
    <rdf:RDF>
      <cc:Work
         rdf:about="">
        <dc:format>image/svg+xml</dc:format>
        <dc:type
           rdf:resource="http://purl.org/dc/dcmitype/StillImage" />
        <dc:title>Microsoft logo</dc:title>
      </cc:Work>
    </rdf:RDF>
  </metadata>
  <defs
     id="defs7038" />
  <sodipodi:namedview
     pagecolor="#ffffff"
     bordercolor="#666666"
     borderopacity="1"
     objecttolerance="10"
     gridtolerance="10"
     guidetolerance="10"
     inkscape:pageopacity="0"
     inkscape:pageshadow="2"
     inkscape:window-width="1920"
     inkscape:window-height="1017"
     id="namedview7036"
     showgrid="false"
     fit-margin-top="0"
     fit-margin-left="0"
     fit-margin-right="0"
     fit-margin-bottom="0"
     inkscape:zoom="1.0596026"
     inkscape:cx="317.91525"
     inkscape:cy="61.056401"
     inkscape:window-x="1912"
     inkscape:window-y="-8"
     inkscape:window-maximized="1"
     inkscape:current-layer="svg7034" />
  <title
     id="title7022">Microsoft logo</title>
  <g
     id="g7607"
     transform="rotate(-45,110.10839,45.608387)">
    <path
       id="path7026"
       d="M 0,0 H 61.3 V 61.3 H 0 Z"
       inkscape:connector-curvature="0"
       style="fill:#7f22f2;fill-opacity:1" />
    <path
       id="path7028"
       d="M 67.7,0 H 129 V 61.3 H 67.7 Z"
       inkscape:connector-curvature="0"
       style="fill:#ba0053;fill-opacity:1" />
    <path
       id="path7030"
       d="M 0,67.7 H 61.3 V 129 H 0 Z"
       inkscape:connector-curvature="0"
       style="fill:#ef0000;fill-opacity:1" />
    <path
       id="path7032"
       d="M 67.7,67.7 H 129 V 129 H 67.7 Z"
       inkscape:connector-curvature="0"
       style="fill:#f600ff;fill-opacity:1" />
  </g>
  <path
     id="path4510"
     style="font-style:normal;font-variant:normal;font-weight:600;font-stretch:normal;font-size:medium;line-height:1.25;font-family:'Segoe UI';-inkscape-font-specification:'Segoe UI, Semi-Bold';font-variant-ligatures:normal;font-variant-caps:normal;font-variant-numeric:normal;font-feature-settings:normal;text-align:start;letter-spacing:-5px;word-spacing:0px;writing-mode:lr-tb;text-anchor:start;fill:#ffffff;fill-opacity:1;stroke:none;stroke-width:2.76801014"
     d="m 684.1853,130.01927 h -12.54255 v -9.40691 h -0.21625 q -6.05502,10.70442 -18.65163,10.70442 -10.21785,0 -16.381,-7.40659 -6.10909,-7.46066 -6.10909,-20.27352 0,-13.731923 6.75784,-22.003516 6.8119,-8.271594 18.11101,-8.271594 11.19097,0 16.27287,8.974409 h 0.21625 V 48.060216 h 12.54255 z m -12.38036,-25.30134 v -7.244405 q 0,-5.892834 -3.83845,-10.001599 -3.83846,-4.108766 -9.78535,-4.108766 -7.02815,0 -11.08286,5.244082 -4.00064,5.244082 -4.00064,14.542868 0,8.43378 3.83845,13.35349 3.89252,4.86564 10.43411,4.86564 6.43346,0 10.4341,-4.70346 4.00064,-4.75751 4.00064,-11.94785 z m -41.0614,-18.111008 q -2.27063,-1.784069 -6.54159,-1.784069 -5.56845,0 -9.29878,5.027831 -3.73033,5.027832 -3.73033,13.677866 v 26.49072 H 598.6303 V 74.659065 h 12.54254 v 11.40723 h 0.21625 q 1.83813,-5.838771 5.62252,-9.082534 3.83846,-3.297824 8.54191,-3.297824 3.40595,0 5.19002,1.027191 z M 588.3846,130.01927 h -12.16411 v -8.65003 h -0.21625 q -5.73065,9.94754 -16.8135,9.94754 -8.16347,0 -12.81286,-4.43314 -4.59533,-4.43315 -4.59533,-11.73161 0,-15.678185 18.05694,-18.273194 l 16.43506,-2.324697 q 0,-11.839731 -11.24504,-11.839731 -9.89348,0 -17.84069,6.8119 V 78.55158 q 8.75815,-5.19002 20.21945,-5.19002 20.97633,0 20.97633,20.651952 z m -12.11005,-27.19354 -11.62348,1.62188 q -5.40627,0.70282 -8.16347,2.64908 -2.70313,1.89219 -2.70313,6.70377 0,3.51408 2.48688,5.78471 2.54095,2.21657 6.75784,2.21657 5.73065,0 9.46097,-4.00064 3.78439,-4.0547 3.78439,-10.16379 z m -40.62893,27.19354 H 523.10307 V 99.744159 q 0,-16.435061 -10.97472,-16.435061 -5.5144,0 -9.29879,4.757517 -3.78439,4.757518 -3.78439,12.164105 v 29.78855 H 486.44856 V 48.060216 h 12.59661 v 35.789509 h 0.21625 q 6.27128,-10.488165 17.94882,-10.488165 18.43538,0 18.43538,22.544147 z m -85.82532,1.29751 q -12.81286,0 -20.48976,-7.73097 -7.62284,-7.78503 -7.62284,-20.59789 0,-13.948176 7.94721,-21.787268 8.00128,-7.839092 21.51696,-7.839092 12.97505,0 20.21945,7.622841 7.2444,7.622841 7.2444,21.138519 0,13.24536 -7.83909,21.24664 -7.78503,7.94722 -20.97633,7.94722 z m 0.59469,-47.95362 q -7.35253,0 -11.62348,5.135957 -4.27095,5.135957 -4.27095,14.164423 0,8.7041 4.32501,13.73193 4.32502,4.97377 11.56942,4.97377 7.40659,0 11.35317,-4.91971 4.00064,-4.9197 4.00064,-14.00224 0,-9.136593 -4.00064,-14.110361 -3.94658,-4.973769 -11.35317,-4.973769 z m -28.24857,3.243762 q -2.27063,-1.784069 -6.54158,-1.784069 -5.56846,0 -9.29879,5.027831 -3.73033,5.027832 -3.73033,13.677866 v 26.49072 H 390.05318 V 74.659065 h 12.54254 v 11.40723 h 0.21626 q 1.83813,-5.838771 5.62252,-9.082534 3.83845,-3.297824 8.5419,-3.297824 3.40595,0 5.19002,1.027191 z M 382.5647,127.47832 q -6.64971,3.83846 -15.73225,3.83846 -12.32629,0 -19.89507,-7.67691 -7.56878,-7.73096 -7.56878,-20.0032 0,-13.67786 8.1094,-21.949454 8.16347,-8.325656 21.78727,-8.325656 7.56878,0 13.35349,2.649073 v 11.677543 q -5.78471,-4.325016 -12.3263,-4.325016 -7.94721,0 -13.02911,5.40627 -5.08189,5.352208 -5.08189,14.0563 0,8.59597 4.75752,13.56974 4.81158,4.97377 12.86692,4.97377 6.75784,0 12.7588,-4.81158 z m -49.87364,2.54095 h -12.16411 v -8.65003 h -0.21625 q -5.73064,9.94754 -16.8135,9.94754 -8.16347,0 -12.81286,-4.43314 -4.59533,-4.43315 -4.59533,-11.73161 0,-15.678185 18.05694,-18.273194 l 16.43507,-2.324697 q 0,-11.839731 -11.24505,-11.839731 -9.89347,0 -17.84069,6.8119 V 78.55158 q 8.75816,-5.19002 20.21945,-5.19002 20.97633,0 20.97633,20.651952 z m -12.11004,-27.19354 -11.62349,1.62188 q -5.40627,0.70282 -8.16346,2.64908 -2.70314,1.89219 -2.70314,6.70377 0,3.51408 2.48689,5.78471 2.54094,2.21657 6.75783,2.21657 5.73065,0 9.46098,-4.00064 3.78439,-4.0547 3.78439,-10.16379 z m -43.00768,27.19354 h -12.7588 V 79.849085 q 0,-6.163148 0.75688,-15.083494 h -0.21625 q -1.18938,5.081894 -2.10845,7.298465 L 240.10789,130.01927 H 231.2416 L 208.04871,72.496557 q -0.97313,-2.540947 -2.05439,-7.730966 h -0.21625 q 0.4325,4.649392 0.4325,15.191619 v 50.06206 H 194.31678 V 52.493358 h 18.111 l 20.38164,51.629882 q 2.3247,5.94689 3.02751,8.86628 h 0.27032 q 2.00032,-6.10908 3.24376,-9.08253 l 20.76008,-51.413632 h 17.46225 z" />
</svg>
